<mxfile host="app.diagrams.net" modified="2022-02-15T03:03:09.634Z" agent="5.0 (Windows NT 10.0; Win64; x64) AppleWebKit/537.36 (KHTML, like Gecko) Chrome/98.0.4758.82 Safari/537.36" etag="c82y6tDri72V76DDI2_J" version="16.5.6" type="github">
  <diagram id="gLHahbnbY2w7_f7nJMqD" name="ページ1">
    <mxGraphModel dx="1038" dy="579" grid="1" gridSize="10" guides="1" tooltips="1" connect="1" arrows="1" fold="1" page="1" pageScale="1" pageWidth="827" pageHeight="1169" math="0" shadow="0">
      <root>
        <mxCell id="0" />
        <mxCell id="1" parent="0" />
        <mxCell id="m3h_X82Cm9SxhgXqNzY0-10" style="edgeStyle=orthogonalEdgeStyle;rounded=0;orthogonalLoop=1;jettySize=auto;html=1;exitX=0.5;exitY=1;exitDx=0;exitDy=0;entryX=0.5;entryY=0;entryDx=0;entryDy=0;" parent="1" source="m3h_X82Cm9SxhgXqNzY0-1" target="m3h_X82Cm9SxhgXqNzY0-2" edge="1">
          <mxGeometry relative="1" as="geometry" />
        </mxCell>
        <mxCell id="m3h_X82Cm9SxhgXqNzY0-15" value="入力" style="edgeLabel;html=1;align=center;verticalAlign=middle;resizable=0;points=[];" parent="m3h_X82Cm9SxhgXqNzY0-10" vertex="1" connectable="0">
          <mxGeometry x="-0.254" relative="1" as="geometry">
            <mxPoint as="offset" />
          </mxGeometry>
        </mxCell>
        <mxCell id="m3h_X82Cm9SxhgXqNzY0-14" style="edgeStyle=orthogonalEdgeStyle;rounded=0;orthogonalLoop=1;jettySize=auto;html=1;exitX=0.5;exitY=0;exitDx=0;exitDy=0;entryX=1;entryY=0.5;entryDx=0;entryDy=0;" parent="1" source="zePy1CebrOYoJUn6ftwR-2" target="m3h_X82Cm9SxhgXqNzY0-1" edge="1">
          <mxGeometry relative="1" as="geometry">
            <mxPoint x="660" y="290" as="sourcePoint" />
          </mxGeometry>
        </mxCell>
        <mxCell id="zePy1CebrOYoJUn6ftwR-3" value="完了メッセージ" style="edgeLabel;html=1;align=center;verticalAlign=middle;resizable=0;points=[];" parent="m3h_X82Cm9SxhgXqNzY0-14" vertex="1" connectable="0">
          <mxGeometry x="-0.6933" y="2" relative="1" as="geometry">
            <mxPoint as="offset" />
          </mxGeometry>
        </mxCell>
        <mxCell id="m3h_X82Cm9SxhgXqNzY0-1" value="顧客" style="rounded=0;whiteSpace=wrap;html=1;" parent="1" vertex="1">
          <mxGeometry x="120" y="80" width="120" height="60" as="geometry" />
        </mxCell>
        <mxCell id="m3h_X82Cm9SxhgXqNzY0-11" style="edgeStyle=orthogonalEdgeStyle;rounded=0;orthogonalLoop=1;jettySize=auto;html=1;exitX=0.5;exitY=1;exitDx=0;exitDy=0;entryX=0.5;entryY=0;entryDx=0;entryDy=0;" parent="1" source="m3h_X82Cm9SxhgXqNzY0-2" target="m3h_X82Cm9SxhgXqNzY0-3" edge="1">
          <mxGeometry relative="1" as="geometry" />
        </mxCell>
        <mxCell id="m3h_X82Cm9SxhgXqNzY0-20" value="結果" style="edgeLabel;html=1;align=center;verticalAlign=middle;resizable=0;points=[];" parent="m3h_X82Cm9SxhgXqNzY0-11" vertex="1" connectable="0">
          <mxGeometry x="-0.2509" y="-1" relative="1" as="geometry">
            <mxPoint as="offset" />
          </mxGeometry>
        </mxCell>
        <mxCell id="m3h_X82Cm9SxhgXqNzY0-2" value="入力情報チェック" style="ellipse;whiteSpace=wrap;html=1;" parent="1" vertex="1">
          <mxGeometry x="120" y="200" width="120" height="80" as="geometry" />
        </mxCell>
        <mxCell id="m3h_X82Cm9SxhgXqNzY0-13" style="edgeStyle=orthogonalEdgeStyle;rounded=0;orthogonalLoop=1;jettySize=auto;html=1;exitX=1;exitY=0.5;exitDx=0;exitDy=0;" parent="1" source="m3h_X82Cm9SxhgXqNzY0-3" edge="1">
          <mxGeometry relative="1" as="geometry">
            <mxPoint x="660" y="320" as="targetPoint" />
          </mxGeometry>
        </mxCell>
        <mxCell id="m3h_X82Cm9SxhgXqNzY0-21" value="挿入" style="edgeLabel;html=1;align=center;verticalAlign=middle;resizable=0;points=[];" parent="m3h_X82Cm9SxhgXqNzY0-13" vertex="1" connectable="0">
          <mxGeometry x="0.7903" y="-1" relative="1" as="geometry">
            <mxPoint as="offset" />
          </mxGeometry>
        </mxCell>
        <mxCell id="m3h_X82Cm9SxhgXqNzY0-3" value="登録" style="ellipse;whiteSpace=wrap;html=1;" parent="1" vertex="1">
          <mxGeometry x="120" y="360" width="120" height="80" as="geometry" />
        </mxCell>
        <mxCell id="m3h_X82Cm9SxhgXqNzY0-18" value="" style="endArrow=classic;html=1;rounded=0;" parent="1" edge="1">
          <mxGeometry width="50" height="50" relative="1" as="geometry">
            <mxPoint x="240" y="230" as="sourcePoint" />
            <mxPoint x="400" y="230" as="targetPoint" />
          </mxGeometry>
        </mxCell>
        <mxCell id="m3h_X82Cm9SxhgXqNzY0-19" value="" style="endArrow=classic;html=1;rounded=0;entryX=1.02;entryY=0.633;entryDx=0;entryDy=0;entryPerimeter=0;" parent="1" target="m3h_X82Cm9SxhgXqNzY0-2" edge="1">
          <mxGeometry width="50" height="50" relative="1" as="geometry">
            <mxPoint x="400" y="250" as="sourcePoint" />
            <mxPoint x="260.0000000000001" y="250" as="targetPoint" />
          </mxGeometry>
        </mxCell>
        <mxCell id="zePy1CebrOYoJUn6ftwR-1" value="入力情報" style="shape=partialRectangle;whiteSpace=wrap;html=1;left=0;right=0;fillColor=none;" parent="1" vertex="1">
          <mxGeometry x="400" y="210" width="120" height="60" as="geometry" />
        </mxCell>
        <mxCell id="zePy1CebrOYoJUn6ftwR-2" value="アカウント登録" style="shape=partialRectangle;whiteSpace=wrap;html=1;left=0;right=0;fillColor=none;" parent="1" vertex="1">
          <mxGeometry x="600" y="260" width="120" height="60" as="geometry" />
        </mxCell>
      </root>
    </mxGraphModel>
  </diagram>
</mxfile>
